<?xml version="1.0" encoding="UTF-8" standalone="no"?>
<svg
   width="300"
   height="300"
   viewBox="0 0 300 300"
   fill="none"
   version="1.1"
   id="svg13"
   sodipodi:docname="icon-grid-texto-fala-tts.svg"
   xml:space="preserve"
   inkscape:version="1.2.2 (b0a8486541, 2022-12-01)"
   inkscape:export-filename="icon.png"
   inkscape:export-xdpi="40.960274"
   inkscape:export-ydpi="40.960274"
   xmlns:inkscape="http://www.inkscape.org/namespaces/inkscape"
   xmlns:sodipodi="http://sodipodi.sourceforge.net/DTD/sodipodi-0.dtd"
   xmlns="http://www.w3.org/2000/svg"
   xmlns:svg="http://www.w3.org/2000/svg"><sodipodi:namedview
     id="namedview15"
     pagecolor="#ffffff"
     bordercolor="#000000"
     borderopacity="0.25"
     inkscape:showpageshadow="2"
     inkscape:pageopacity="0.0"
     inkscape:pagecheckerboard="0"
     inkscape:deskcolor="#d1d1d1"
     showgrid="false"
     inkscape:zoom="0.65916667"
     inkscape:cx="103.91909"
     inkscape:cy="108.47029"
     inkscape:window-width="1706"
     inkscape:window-height="656"
     inkscape:window-x="1738"
     inkscape:window-y="323"
     inkscape:window-maximized="0"
     inkscape:current-layer="svg13" /><defs
     id="defs11"><radialGradient
       id="paint0_radial_29_149"
       cx="0"
       cy="0"
       r="1"
       gradientUnits="userSpaceOnUse"
       gradientTransform="matrix(0,150,-150,0,150,0)"><stop
         stop-color="#80D2FF"
         id="stop6"
         offset="0"
         style="stop-color:#faf6f0;stop-opacity:1;" /><stop
         offset="1"
         stop-color="#2991C9"
         id="stop8"
         style="stop-color:#d3d6d8;stop-opacity:1;" /></radialGradient><style
       id="style121">.cls-1{fill:#faf6f0;}.cls-2{fill:#d3d6d8;}.cls-3{fill:#d4d7d9;}.cls-4{fill:#fff;stroke:#002a44;stroke-miterlimit:10;stroke-width:4px;}.cls-5{fill:#002a44;}</style><radialGradient
       id="paint0_radial_0_1"
       cx="0"
       cy="0"
       r="1"
       gradientUnits="userSpaceOnUse"
       gradientTransform="matrix(0,150.00001,-150.00001,0,-49.61745,0.742838)"><stop
         stop-color="#6EBBF7"
         id="stop349" /><stop
         offset="1"
         stop-color="#2196F3"
         id="stop351" /></radialGradient><style
       id="style418">.cls-1{fill:#faf6f0;}.cls-2{fill:#d3d6d8;}.cls-3{fill:#d4d7d9;}.cls-4{fill:#fff;stroke:#002a44;stroke-miterlimit:10;stroke-width:4px;}.cls-5{fill:#002a44;}</style><style
       id="style1253">.cls-1{fill:#faf6f0;}.cls-2{fill:#d3d6d8;}.cls-3{fill:#d4d7d9;}.cls-4{fill:#fff;stroke:#002a44;stroke-miterlimit:10;stroke-width:4px;}.cls-5{fill:#002a44;}</style><radialGradient
       fx="0"
       fy="0"
       cx="0"
       cy="0"
       r="1"
       gradientUnits="userSpaceOnUse"
       gradientTransform="matrix(0,112.5,-112.5,0,112.5,2.29454e-7)"
       spreadMethod="pad"
       id="radialGradient1560"><stop
         style="stop-opacity:1;stop-color:#faf6f0"
         offset="0"
         id="stop1556" /><stop
         style="stop-opacity:1;stop-color:#d3d6d8"
         offset="1"
         id="stop1558" /></radialGradient></defs><g
     id="g1713"
     transform="translate(325.04097,-120.31762)"><g
       id="g1544"
       transform="matrix(1.3333333,0,0,1.3333333,-325.04202,120.31877)"><g
         id="g1546"><g
           id="g1548"><g
             id="g1554"><path
               d="m 87.914,1.16 c 1.227,0.016 2.398,-0.14 3.516,-0.469 14.683,-0.961 29.367,-0.921 44.047,0.118 13.312,1.039 26.199,3.925 38.664,8.668 20.714,8.527 34.89,23.32 42.523,44.378 4.367,12.68 6.945,25.715 7.734,39.11 1.09,16.824 0.7,33.605 -1.171,50.351 -1.403,11.774 -4.45,23.09 -9.141,33.957 -8.699,18.844 -22.793,31.844 -42.289,38.997 -15.801,5.335 -32.043,8.148 -48.738,8.429 -18.774,0.977 -37.364,-0.429 -55.762,-4.215 C 33.426,212.941 12.535,192.293 4.617,158.539 1.258,143.348 -0.266,127.969 0.051,112.402 -0.324,95.855 1.434,79.539 5.32,63.457 13.621,31.898 33.652,12.344 65.422,4.793 72.824,2.98 80.32,1.773 87.914,1.16 Z"
               style="fill:url(#radialGradient1560);fill-rule:evenodd;stroke:none"
               id="path1562" /></g></g></g><path
         d="m 56.234,137.098 h 112.532 c 2.527,0 4.562,2.035 4.562,4.558 v 0.016 c 0,2.523 -2.035,4.558 -4.562,4.558 H 56.234 c -2.527,0 -4.562,-2.035 -4.562,-4.558 v -0.016 c 0,-2.523 2.035,-4.558 4.562,-4.558 z"
         style="fill:#8596a1;fill-opacity:1;fill-rule:nonzero;stroke:none"
         id="path1564" /><path
         d="m 56.234,108.77 h 112.532 c 2.527,0 4.562,2.035 4.562,4.558 v 0.016 c 0,2.523 -2.035,4.558 -4.562,4.558 H 56.234 c -2.527,0 -4.562,-2.035 -4.562,-4.558 v -0.016 c 0,-2.523 2.035,-4.558 4.562,-4.558 z"
         style="fill:#8596a1;fill-opacity:1;fill-rule:nonzero;stroke:none"
         id="path1566" /><path
         d="m 56.234,80.43 h 112.532 c 2.527,0 4.562,2.031 4.562,4.558 V 85 c 0,2.527 -2.035,4.559 -4.562,4.559 H 56.234 c -2.527,0 -4.562,-2.032 -4.562,-4.559 v -0.012 c 0,-2.527 2.035,-4.558 4.562,-4.558 z"
         style="fill:#8596a1;fill-opacity:1;fill-rule:nonzero;stroke:none"
         id="path1568" /><path
         d="m 56.234,165.441 h 51.707 c 2.524,0 4.559,2.032 4.559,4.559 v 0.012 c 0,2.527 -2.035,4.558 -4.559,4.558 H 56.234 c -2.527,0 -4.562,-2.031 -4.562,-4.558 V 170 c 0,-2.527 2.035,-4.559 4.562,-4.559 z"
         style="fill:#8596a1;fill-opacity:1;fill-rule:nonzero;stroke:none"
         id="path1570" /><path
         d="m 168.027,156.566 c 2.282,-2.464 5.278,-4.152 8.563,-4.832 1.101,0 2.199,-0.14 3.25,-0.191 1.258,0.086 2.488,0.406 3.629,0.945 1.824,1.059 3.406,2.492 4.64,4.203 1.84,2.442 3.082,5.278 3.629,8.286 0.114,1.023 0.149,2.054 0.106,3.082 -0.621,-0.848 -1.137,-1.766 -1.535,-2.739 -0.711,-1.191 -1.598,-2.269 -2.633,-3.195 -1.524,-1.449 -3.535,-2.285 -5.637,-2.34 -0.809,-0.027 -1.617,0.078 -2.391,0.309 -2.183,0.574 -4.156,1.769 -5.675,3.437 -0.5,0.602 -1.051,1.153 -1.496,1.754 -0.45,0.793 -1,1.496 -1.356,2.301 -1.223,2.344 -1.918,4.926 -2.035,7.566 0.09,1.047 0.09,2.047 0.195,3.094 0.305,0.703 0.153,1.649 0.895,2.047 0.519,-0.016 1.031,-0.145 1.492,-0.387 1.125,-0.933 2.191,-1.933 3.199,-2.988 1.188,-1 2.043,-2.301 3.184,-3.391 0.648,-0.496 1.047,-1.148 1.699,-1.648 1.16,-1.16 2.449,-2.195 3.836,-3.078 1.062,-0.656 2.293,-0.985 3.539,-0.949 1.535,0.183 2.922,0.992 3.836,2.238 1.262,1.808 2.168,3.836 2.672,5.984 0.254,1.086 0.152,2.235 0.305,3.387 -0.118,3.797 -0.79,7.559 -1.993,11.16 -0.429,1.266 -1.019,2.473 -1.754,3.594 -0.242,0.293 -0.394,0.687 -0.753,0.789 0.085,-0.738 0.207,-1.473 0.371,-2.195 0.136,-0.805 0.171,-1.621 0.101,-2.43 0.106,-1.277 0.106,-2.559 0,-3.836 -0.293,-1.277 -0.344,-2.559 -0.765,-3.836 -0.207,-0.895 -0.54,-1.754 -0.985,-2.555 -0.226,-0.531 -0.57,-1.007 -0.996,-1.394 -0.516,-0.426 -1.141,-0.692 -1.805,-0.766 -0.492,0.098 -0.976,0.25 -1.441,0.446 -1.09,0.75 -2.063,1.656 -2.891,2.683 -0.746,0.774 -1.566,1.477 -2.441,2.098 -1.301,0.976 -2.918,1.433 -4.539,1.277 -2.195,-0.258 -4.309,-1.008 -6.172,-2.199 -0.898,-0.535 -1.719,-1.188 -2.445,-1.942 -1.801,-1.878 -2.953,-4.285 -3.297,-6.863 -0.219,-0.785 -0.266,-1.601 -0.141,-2.406 0.078,-3.176 0.875,-6.293 2.34,-9.113 0.715,-1.317 1.543,-2.567 2.48,-3.735 0.239,-0.66 0.661,-1.238 1.215,-1.672 z"
         style="fill:#002a44;fill-opacity:1;fill-rule:nonzero;stroke:none"
         id="path1572" /><path
         d="m 142.551,199.379 c -2.289,2.461 -5.289,4.148 -8.578,4.832 -1.102,0 -2.188,0.152 -3.235,0.203 -1.261,-0.094 -2.496,-0.414 -3.644,-0.945 -1.824,-1.074 -3.403,-2.52 -4.629,-4.246 -1.84,-2.434 -3.09,-5.266 -3.641,-8.27 -0.105,-1.027 -0.14,-2.062 -0.105,-3.094 0.625,0.848 1.14,1.774 1.535,2.75 0.707,1.196 1.601,2.27 2.648,3.184 1.52,1.449 3.524,2.289 5.621,2.352 0.809,0.019 1.618,-0.083 2.391,-0.309 2.191,-0.574 4.168,-1.774 5.691,-3.449 0.497,-0.59 1.036,-1.141 1.481,-1.742 0.492,-0.743 0.945,-1.508 1.355,-2.301 1.223,-2.344 1.922,-4.926 2.047,-7.567 -0.101,-1.047 -0.101,-2.047 -0.203,-3.093 -0.297,-0.704 -0.156,-1.649 -0.898,-2.047 -0.524,-0.028 -1.047,0.105 -1.492,0.386 -1.172,0.879 -2.243,1.879 -3.2,2.989 -1.187,1 -2.031,2.3 -3.179,3.39 -0.653,0.496 -1.051,1.149 -1.704,1.649 -1.164,1.164 -2.449,2.199 -3.835,3.094 -1.067,0.64 -2.293,0.968 -3.539,0.945 -1.536,-0.184 -2.926,-1 -3.836,-2.25 -1.274,-1.801 -2.184,-3.836 -2.684,-5.985 -0.258,-1.085 -0.152,-2.234 -0.309,-3.386 0.121,-3.797 0.793,-7.555 1.996,-11.16 0.434,-1.266 1.02,-2.473 1.75,-3.59 0.243,-0.297 0.383,-0.692 0.743,-0.793 -0.078,0.734 -0.207,1.465 -0.383,2.183 -0.102,0.825 -0.098,1.661 0.012,2.481 -0.106,1.277 -0.106,2.558 0,3.836 0.293,1.277 0.347,2.554 0.742,3.836 0.207,0.894 0.543,1.758 0.996,2.554 0.223,0.536 0.566,1.012 1,1.395 0.508,0.418 1.133,0.68 1.789,0.754 0.496,-0.102 0.98,-0.254 1.441,-0.461 1.094,-0.738 2.067,-1.641 2.891,-2.672 0.746,-0.773 1.566,-1.473 2.441,-2.094 1.305,-0.976 2.922,-1.429 4.539,-1.281 2.204,0.258 4.317,1.012 6.188,2.199 0.883,0.551 1.699,1.203 2.43,1.946 1.82,1.886 2.992,4.304 3.347,6.902 0.219,0.777 0.266,1.594 0.141,2.391 -0.074,3.175 -0.875,6.293 -2.34,9.113 -0.707,1.324 -1.543,2.574 -2.492,3.734 -0.285,0.645 -0.731,1.207 -1.293,1.637 z"
         style="fill:#002a44;fill-opacity:1;fill-rule:nonzero;stroke:none"
         id="path1574" /><path
         d="m 149.324,159.363 c 2.223,-0.82 4.696,-0.636 6.774,0.5 0.754,0.535 1.355,1.254 1.754,2.082 0.433,1.059 0.359,2.254 -0.207,3.25 -0.665,1.309 -1.731,2.375 -3.04,3.043 -0.949,0.52 -2.003,0.809 -3.082,0.844 -1.171,0.152 -2.359,0 -3.453,-0.449 -1.386,-0.52 -2.468,-1.637 -2.937,-3.043 -0.285,-1.055 -0.102,-2.18 0.496,-3.094 0.809,-1.457 2.125,-2.57 3.695,-3.133 z"
         style="fill:#002a44;fill-opacity:1;fill-rule:nonzero;stroke:none"
         id="path1576" /><path
         d="m 149.516,172.57 c 0.945,-1.539 2.629,-2.468 4.437,-2.441 0.918,0.047 1.82,0.281 2.645,0.691 1.211,0.469 2.117,1.492 2.441,2.746 0.004,1.473 0.152,2.942 0.449,4.387 0.95,2.922 2.696,5.524 5.035,7.516 1.102,1.277 2.559,2.199 3.684,3.488 -1.687,-0.051 -3.367,-0.227 -5.027,-0.523 -2.035,-0.329 -3.996,-1.02 -5.789,-2.043 -1.028,-0.52 -1.985,-1.172 -2.84,-1.946 -1.391,-1.105 -2.586,-2.437 -3.539,-3.937 -1.137,-1.723 -1.832,-3.696 -2.032,-5.75 0.055,-0.754 0.235,-1.492 0.536,-2.188 z"
         style="fill:#002a44;fill-opacity:1;fill-rule:nonzero;stroke:none"
         id="path1578" /><path
         d="m 55.188,145.824 c -3.43,-1.269 -4.231,-5.019 -1.551,-7.273 l 1.633,-1.375 h 114.46 l 1.633,1.375 c 2.125,1.789 2.231,4.246 0.262,6.094 l -1.367,1.285 -57.137,0.097 c -31.426,0.051 -57.496,-0.039 -57.933,-0.203 z"
         style="fill:#8596a1;fill-opacity:1;fill-rule:nonzero;stroke:none"
         id="path1580" /><g
         id="g1582"><path
           d="M 186.484,25.582 H 86.867 c -7.594,0.02 -13.746,6.172 -13.769,13.77 v 59.73 c 0.023,7.598 6.175,13.75 13.769,13.77 h 16.516 v 26.296 l 26.297,-26.296 h 56.804 c 7.598,-0.02 13.754,-6.172 13.782,-13.77 v -59.73 c -0.028,-7.598 -6.184,-13.75 -13.782,-13.77 z"
           style="fill:#ffffff;fill-opacity:1;fill-rule:nonzero;stroke:#002a44;stroke-width:3.81036;stroke-linecap:butt;stroke-linejoin:miter;stroke-miterlimit:10;stroke-dasharray:none;stroke-opacity:1"
           id="path1584" /></g><path
         d="m 124.828,37.898 c 1.84,0 3.32,1.485 3.32,3.325 v 56.371 c 0,1.84 -1.48,3.32 -3.32,3.32 -1.84,0 -3.32,-1.48 -3.32,-3.32 V 41.223 c 0,-1.84 1.48,-3.325 3.32,-3.325 z"
         style="fill:#002a44;fill-opacity:1;fill-rule:nonzero;stroke:none"
         id="path1586" /><path
         d="m 136.676,43.992 c 1.84,0 3.32,1.481 3.32,3.324 v 44.196 c 0,1.84 -1.48,3.324 -3.32,3.324 -1.84,0 -3.321,-1.484 -3.321,-3.324 V 47.316 c 0,-1.843 1.481,-3.324 3.321,-3.324 z"
         style="fill:#002a44;fill-opacity:1;fill-rule:nonzero;stroke:none"
         id="path1588" /><path
         d="m 148.535,59.215 c 1.84,0 3.32,1.48 3.32,3.32 v 13.742 c 0,1.84 -1.48,3.325 -3.32,3.325 -1.84,0 -3.32,-1.485 -3.32,-3.325 V 62.535 c 0,-1.84 1.48,-3.32 3.32,-3.32 z"
         style="fill:#002a44;fill-opacity:1;fill-rule:nonzero;stroke:none"
         id="path1590" /><path
         d="m 160.383,55.148 c 1.84,0 3.32,1.481 3.32,3.321 v 21.875 c 0,1.84 -1.48,3.324 -3.32,3.324 -1.84,0 -3.321,-1.484 -3.321,-3.324 V 58.469 c 0,-1.84 1.481,-3.321 3.321,-3.321 z"
         style="fill:#002a44;fill-opacity:1;fill-rule:nonzero;stroke:none"
         id="path1592" /><path
         d="m 172.23,64.953 c 1.84,0 3.321,1.485 3.321,3.324 v 2.274 c 0,1.84 -1.481,3.32 -3.321,3.32 -1.839,0 -3.32,-1.48 -3.32,-3.32 v -2.274 c 0,-1.839 1.481,-3.324 3.32,-3.324 z"
         style="fill:#002a44;fill-opacity:1;fill-rule:nonzero;stroke:none"
         id="path1594" /><path
         d="m 101.133,59.215 c 1.84,0 3.324,1.48 3.324,3.32 v 13.742 c 0,1.84 -1.484,3.325 -3.324,3.325 -1.84,0 -3.321,-1.485 -3.321,-3.325 V 62.535 c 0,-1.84 1.481,-3.32 3.321,-3.32 z"
         style="fill:#002a44;fill-opacity:1;fill-rule:nonzero;stroke:none"
         id="path1596" /><path
         d="m 112.98,55.148 c 1.84,0 3.321,1.481 3.321,3.321 v 21.875 c 0,1.84 -1.481,3.324 -3.321,3.324 -1.839,0 -3.32,-1.484 -3.32,-3.324 V 58.469 c 0,-1.84 1.481,-3.321 3.32,-3.321 z"
         style="fill:#002a44;fill-opacity:1;fill-rule:nonzero;stroke:none"
         id="path1598" /></g></g></svg>
